<svg width="40" height="32" viewBox="0 0 40 32" fill="none" xmlns="http://www.w3.org/2000/svg">
<path d="M37.875 0.875H2.125C1.36445 0.875 0.75 1.48945 0.75 2.25V29.75C0.75 30.5105 1.36445 31.125 2.125 31.125H37.875C38.6355 31.125 39.25 30.5105 39.25 29.75V2.25C39.25 1.48945 38.6355 0.875 37.875 0.875ZM36.1562 5.63594V28.0312H3.84375V5.63594L2.65781 4.71211L4.34648 2.54219L6.18555 3.97305H33.8187L35.6578 2.54219L37.3465 4.71211L36.1562 5.63594ZM33.8187 3.96875L20 14.7109L6.18125 3.96875L4.34219 2.53789L2.65352 4.70781L3.83945 5.63164L18.5176 17.0441C18.9397 17.3721 19.459 17.5501 19.9936 17.5501C20.5281 17.5501 21.0474 17.3721 21.4695 17.0441L36.1562 5.63594L37.3422 4.71211L35.6535 2.54219L33.8187 3.96875Z" fill="white"/>
</svg>
