<svg width="44" height="44" viewBox="0 0 44 44" fill="none" xmlns="http://www.w3.org/2000/svg">
<path d="M31.1667 14.6666H29.3334V11.2016C29.3334 9.2567 28.5608 7.39144 27.1855 6.01617C25.8102 4.6409 23.945 3.86829 22 3.86829C20.0551 3.86829 18.1899 4.6409 16.8146 6.01617C15.4393 7.39144 14.6667 9.2567 14.6667 11.2016V14.6666H12.8334C11.3747 14.6666 9.97574 15.2461 8.94429 16.2775C7.91284 17.309 7.33337 18.7079 7.33337 20.1666V34.8333C7.33337 36.292 7.91284 37.6909 8.94429 38.7224C9.97574 39.7538 11.3747 40.3333 12.8334 40.3333H31.1667C32.6254 40.3333 34.0243 39.7538 35.0558 38.7224C36.0872 37.6909 36.6667 36.292 36.6667 34.8333V20.1666C36.6667 18.7079 36.0872 17.309 35.0558 16.2775C34.0243 15.2461 32.6254 14.6666 31.1667 14.6666ZM18.3334 11.2016C18.3087 10.203 18.6807 9.23528 19.3679 8.51028C20.0551 7.78529 21.0015 7.36208 22 7.33329C22.9986 7.36208 23.945 7.78529 24.6322 8.51028C25.3194 9.23528 25.6914 10.203 25.6667 11.2016V14.6666H18.3334V11.2016ZM33 34.8333C33 35.3195 32.8069 35.7858 32.4631 36.1297C32.1193 36.4735 31.6529 36.6666 31.1667 36.6666H12.8334C12.3471 36.6666 11.8808 36.4735 11.537 36.1297C11.1932 35.7858 11 35.3195 11 34.8333V20.1666C11 19.6804 11.1932 19.2141 11.537 18.8703C11.8808 18.5264 12.3471 18.3333 12.8334 18.3333H31.1667C31.6529 18.3333 32.1193 18.5264 32.4631 18.8703C32.8069 19.2141 33 19.6804 33 20.1666V34.8333Z" fill="white"/>
<path d="M22 22C20.9122 22 19.8488 22.3226 18.9444 22.9269C18.0399 23.5313 17.3349 24.3902 16.9187 25.3952C16.5024 26.4002 16.3935 27.5061 16.6057 28.573C16.8179 29.6399 17.3417 30.6199 18.1109 31.3891C18.8801 32.1583 19.8601 32.6821 20.927 32.8943C21.9939 33.1065 23.0998 32.9976 24.1048 32.5813C25.1098 32.1651 25.9687 31.4601 26.5731 30.5556C27.1774 29.6512 27.5 28.5878 27.5 27.5C27.5 26.0413 26.9205 24.6424 25.8891 23.6109C24.8576 22.5795 23.4587 22 22 22ZM22 29.3333C21.6374 29.3333 21.2829 29.2258 20.9815 29.0244C20.68 28.8229 20.445 28.5366 20.3062 28.2016C20.1675 27.8666 20.1312 27.498 20.2019 27.1423C20.2726 26.7867 20.4472 26.46 20.7036 26.2036C20.96 25.9472 21.2867 25.7726 21.6423 25.7019C21.998 25.6312 22.3666 25.6675 22.7016 25.8062C23.0366 25.945 23.3229 26.18 23.5244 26.4815C23.7258 26.7829 23.8333 27.1374 23.8333 27.5C23.8333 27.9862 23.6402 28.4525 23.2964 28.7964C22.9525 29.1402 22.4862 29.3333 22 29.3333Z" fill="white"/>
</svg>
