<svg width="44" height="44" viewBox="0 0 44 44" fill="none" xmlns="http://www.w3.org/2000/svg">
<path d="M22 3.66663C20.187 3.66663 18.4147 4.20424 16.9073 5.21149C15.3998 6.21873 14.2249 7.65037 13.5311 9.32536C12.8373 11.0003 12.6558 12.8435 13.0095 14.6216C13.3632 16.3998 14.2362 18.0331 15.5182 19.3151C16.8002 20.5971 18.4335 21.4701 20.2117 21.8238C21.9898 22.1775 23.8329 21.996 25.5079 21.3022C27.1829 20.6084 28.6146 19.4335 29.6218 17.926C30.6291 16.4186 31.1667 14.6463 31.1667 12.8333C31.1667 10.4021 30.2009 8.07056 28.4818 6.35148C26.7627 4.6324 24.4312 3.66663 22 3.66663ZM22 18.3333C20.9122 18.3333 19.8488 18.0107 18.9444 17.4064C18.0399 16.802 17.3349 15.943 16.9187 14.9381C16.5024 13.9331 16.3935 12.8272 16.6057 11.7603C16.8179 10.6934 17.3417 9.71339 18.1109 8.94421C18.8801 8.17502 19.8601 7.65119 20.927 7.43897C21.9939 7.22676 23.0998 7.33567 24.1048 7.75196C25.1098 8.16824 25.9687 8.87319 26.5731 9.77766C27.1774 10.6821 27.5 11.7455 27.5 12.8333C27.5 14.292 26.9205 15.6909 25.8891 16.7224C24.8576 17.7538 23.4587 18.3333 22 18.3333ZM38.5 38.5V36.6666C38.5 33.263 37.1479 29.9988 34.7412 27.5921C32.3345 25.1854 29.0703 23.8333 25.6667 23.8333H18.3333C14.9297 23.8333 11.6655 25.1854 9.2588 27.5921C6.85208 29.9988 5.5 33.263 5.5 36.6666V38.5H9.16667V36.6666C9.16667 34.2355 10.1324 31.9039 11.8515 30.1848C13.5706 28.4657 15.9022 27.5 18.3333 27.5H25.6667C28.0978 27.5 30.4294 28.4657 32.1485 30.1848C33.8676 31.9039 34.8333 34.2355 34.8333 36.6666V38.5H38.5Z" fill="white"/>
</svg>
