<svg width="22" height="22" viewBox="0 0 22 22" fill="none" xmlns="http://www.w3.org/2000/svg">
<path d="M1.58598 0.579465C1.46043 0.516671 1.31978 0.490373 1.18002 0.503562C1.04026 0.516752 0.907013 0.5689 0.795428 0.654074C0.683843 0.739247 0.598401 0.854028 0.548822 0.985359C0.499243 1.11669 0.487518 1.2593 0.51498 1.39696L2.61948 8.67196C2.65872 8.80754 2.73542 8.92929 2.84076 9.02322C2.9461 9.11715 3.07581 9.17945 3.21498 9.20296L11.75 10.6325C12.152 10.712 12.152 11.288 11.75 11.3675L3.21498 12.797C3.07581 12.8205 2.9461 12.8828 2.84076 12.9767C2.73542 13.0706 2.65872 13.1924 2.61948 13.328L0.51498 20.603C0.487518 20.7406 0.499243 20.8832 0.548822 21.0146C0.598401 21.1459 0.683843 21.2607 0.795428 21.3459C0.907013 21.431 1.04026 21.4832 1.18002 21.4964C1.31978 21.5096 1.46043 21.4833 1.58598 21.4205L21.086 11.6705C21.2104 11.6081 21.315 11.5124 21.3881 11.394C21.4612 11.2755 21.4999 11.1391 21.4999 11C21.4999 10.8608 21.4612 10.7244 21.3881 10.606C21.315 10.4876 21.2104 10.3918 21.086 10.3295L1.58598 0.579465Z" fill="white"/>
</svg>
